<svg viewBox="0 0 26 32" fill="none" xmlns="http://www.w3.org/2000/svg">
<path d="M9.83153 28.7665L9.40638 24.6369C9.17609 24.5293 8.95909 24.4003 8.75537 24.2497C8.55165 24.0992 8.35236 23.9378 8.15751 23.7658L4.99547 25.3789L2.07257 19.249L4.80946 16.7326C4.79175 16.582 4.78289 16.4368 4.78289 16.297V15.426C4.78289 15.2862 4.79175 15.141 4.80946 14.9904L2.07257 12.4739L4.99547 6.34409L8.15751 7.95721C8.35236 7.78515 8.55608 7.62383 8.76866 7.47328C8.98123 7.32272 9.1938 7.19367 9.40638 7.08613L9.83153 2.95654H15.6773L16.1025 7.08613C16.3328 7.19367 16.5498 7.32272 16.7535 7.47328C16.9572 7.62383 17.1565 7.78515 17.3513 7.95721L20.5134 6.34409L23.4363 12.4739L20.6994 14.9904C20.7171 15.141 20.726 15.2862 20.726 15.426V16.297C20.726 16.4368 20.7082 16.582 20.6728 16.7326L23.4097 19.249L20.4868 25.3789L17.3513 23.7658C17.1565 23.9378 16.9528 24.0992 16.7402 24.2497C16.5276 24.4003 16.315 24.5293 16.1025 24.6369L15.6773 28.7665H9.83153ZM12.8076 20.3782C13.835 20.3782 14.7119 19.9373 15.4382 19.0555C16.1645 18.1736 16.5276 17.109 16.5276 15.8615C16.5276 14.614 16.1645 13.5494 15.4382 12.6675C14.7119 11.7857 13.835 11.3448 12.8076 11.3448C11.7624 11.3448 10.8811 11.7857 10.1637 12.6675C9.44624 13.5494 9.08752 14.614 9.08752 15.8615C9.08752 17.109 9.44624 18.1736 10.1637 19.0555C10.8811 19.9373 11.7624 20.3782 12.8076 20.3782Z" fill="#1D1B20"/>
</svg>
